<?xml version="1.0" standalone="no"?>
<!DOCTYPE svg PUBLIC "-//W3C//DTD SVG 20010904//EN"
 "http://www.w3.org/TR/2001/REC-SVG-20010904/DTD/svg10.dtd">
<svg version="1.0" xmlns="http://www.w3.org/2000/svg"
 width="600.000000pt" height="600.000000pt" viewBox="0 0 600.000000 600.000000"
 preserveAspectRatio="xMidYMid meet">
<metadata>
Created by potrace 1.11, written by Peter Selinger 2001-2013
</metadata>
<g transform="translate(0.000000,600.000000) scale(0.100000,-0.100000)"
fill="#000000" stroke="none">
<path d="M417 5368 c-32 -128 -357 -1571 -355 -1573 2 -1 345 -46 763 -99 418
-54 761 -99 763 -101 1 -1 -13 -57 -33 -125 -155 -538 -112 -1077 125 -1585
173 -370 479 -710 845 -940 792 -496 1844 -431 2580 159 1026 824 1120 2349
202 3285 -352 359 -783 579 -1287 657 -159 25 -471 25 -635 0 -323 -49 -643
-169 -906 -341 l-95 -62 -974 373 c-535 206 -977 374 -981 374 -4 0 -9 -10
-12 -22z m1048 -468 c534 -204 973 -375 976 -378 4 -4 -37 -213 -90 -465 l-96
-457 -25 5 c-14 2 -482 63 -1040 135 -558 72 -1018 132 -1021 133 -3 1 67 318
155 704 88 386 162 700 165 698 3 -1 443 -170 976 -375z m2495 66 c63 -8 160
-24 215 -36 100 -22 297 -83 325 -102 13 -8 13 -9 0 -5 -54 16 -59 14 -20 -4
25 -12 57 -22 72 -23 14 0 24 -4 22 -7 -2 -3 8 -11 22 -18 31 -14 37 -14 29
-1 -10 15 -2 12 35 -15 19 -14 29 -25 22 -25 -22 0 -12 -28 12 -37 13 -4 64
-50 112 -102 90 -95 90 -99 9 -68 l-29 11 24 6 c25 6 25 7 -10 29 -23 14 -46
20 -65 18 -16 -3 -51 2 -77 10 -42 12 -50 12 -72 -3 l-25 -16 54 -63 c64 -76
85 -114 85 -154 0 -23 10 -38 45 -68 53 -44 71 -48 67 -14 l-2 25 24 -23 c27
-25 46 -21 46 11 0 17 2 18 15 8 19 -16 19 -7 -2 33 -9 18 -18 26 -20 20 -4
-11 -20 7 -96 105 -7 8 -5 12 5 12 8 0 29 -20 47 -45 33 -46 64 -58 89 -33 6
6 13 10 16 7 16 -18 106 -204 106 -219 0 -17 -3 -18 -25 -8 -21 10 -28 8 -40
-8 -13 -18 -15 -17 -54 21 -46 44 -55 32 -14 -21 20 -26 23 -38 15 -46 -7 -7
-12 -27 -12 -45 0 -18 -2 -33 -4 -33 -27 0 -109 50 -141 85 -36 41 -42 43 -59
30 -16 -12 -17 -16 -3 -35 8 -12 33 -35 56 -51 35 -27 41 -36 41 -69 0 -31 7
-44 40 -76 48 -47 116 -141 107 -150 -5 -5 -107 -19 -170 -23 -4 -1 11 -35 33
-76 23 -41 43 -91 45 -111 2 -20 7 -40 13 -46 9 -9 196 52 215 71 5 5 0 25
-12 50 -19 37 -20 44 -8 69 8 15 20 51 27 80 9 41 18 55 37 63 21 8 32 2 85
-42 51 -42 66 -50 89 -45 22 4 32 0 44 -17 8 -12 15 -17 15 -11 0 6 -18 36
-41 67 -29 41 -47 57 -63 57 -25 0 -53 25 -39 33 15 10 68 -20 161 -92 51 -39
95 -71 97 -71 15 0 0 45 -30 91 -27 39 -34 59 -30 79 4 20 -4 43 -35 93 -22
37 -40 69 -40 72 0 3 9 5 20 5 23 0 26 10 8 28 -6 6 -9 14 -6 17 8 8 88 -56
107 -85 15 -25 15 -25 -6 -7 -19 16 -21 16 -27 2 -14 -38 -6 -147 13 -179 16
-25 71 -76 83 -76 2 0 2 20 0 45 -2 25 0 45 4 45 15 -1 107 -174 108 -204 1
-27 -4 -31 -64 -56 -61 -25 -65 -29 -71 -63 -3 -21 -8 -40 -11 -43 -10 -9 -81
33 -133 79 l-49 44 -81 -38 c-44 -21 -114 -49 -155 -63 -55 -18 -75 -29 -75
-42 0 -11 -10 -20 -23 -24 -19 -4 -34 -28 -71 -111 -62 -139 -121 -245 -194
-351 l-60 -87 30 -28 c26 -25 30 -37 41 -131 10 -86 10 -109 -3 -145 -13 -39
-13 -43 4 -57 10 -8 74 -61 141 -118 67 -57 137 -110 156 -119 l34 -17 34 37
c18 20 40 37 48 37 8 0 87 20 174 45 87 25 171 45 185 45 40 0 61 -22 70 -76
10 -65 -8 -334 -27 -404 -9 -30 -46 -111 -83 -180 -38 -69 -91 -170 -119 -225
-28 -55 -72 -131 -97 -169 -50 -76 -53 -85 -27 -65 47 36 -64 -73 -139 -136
-494 -414 -1162 -582 -1809 -454 -240 47 -540 171 -749 309 -801 527 -1157
1512 -875 2418 38 123 34 119 117 105 36 -5 38 -8 31 -32 -22 -84 -30 -151
-19 -151 7 0 16 20 20 47 9 64 34 123 51 123 17 0 17 3 0 -73 -62 -268 -60
-255 -47 -361 6 -55 12 -100 14 -101 1 0 29 -21 62 -45 134 -99 264 -259 360
-442 l54 -104 -47 -94 c-46 -92 -47 -97 -47 -186 0 -82 3 -94 27 -131 15 -23
56 -60 92 -84 59 -39 66 -47 76 -90 10 -41 22 -57 78 -105 81 -69 200 -148
246 -164 30 -10 35 -17 51 -78 10 -37 38 -106 62 -154 53 -106 169 -234 270
-299 38 -23 79 -53 93 -65 26 -23 203 -100 242 -106 36 -5 35 28 -1 47 -35 17
-51 43 -51 79 0 18 -6 26 -22 28 -15 3 -6 7 25 12 37 7 47 12 43 25 -4 12 9
22 52 40 31 13 68 23 82 23 48 -1 62 25 58 107 l-3 74 75 46 c41 25 92 63 113
83 39 37 43 52 23 99 -5 10 13 38 55 85 72 81 89 116 89 182 l0 49 -62 6
c-147 14 -328 82 -432 161 -56 44 -87 44 -151 0 -35 -23 -39 -24 -61 -9 -29
19 -30 23 -3 51 l22 23 -42 71 c-46 77 -71 94 -153 105 -59 8 -91 33 -106 84
-17 53 -85 112 -191 164 -57 27 -103 42 -140 45 -41 4 -71 14 -116 42 l-61 37
-29 -24 c-22 -19 -36 -24 -61 -20 -46 8 -160 82 -183 121 -11 18 -46 56 -77
84 l-56 52 7 57 c4 32 15 69 25 83 20 28 36 80 26 80 -18 0 -73 -30 -89 -48
-15 -17 -23 -19 -47 -11 -32 12 -40 41 -40 161 0 65 3 79 18 87 10 5 33 37 51
70 l32 61 49 0 c73 0 100 -13 100 -49 0 -29 2 -30 94 -52 l94 -22 6 -45 c3
-25 6 -69 6 -99 0 -61 3 -61 69 -3 34 29 34 30 21 70 -7 22 -11 42 -9 45 4 3
362 -85 451 -111 11 -3 52 27 122 91 79 71 113 95 133 95 15 0 306 -36 647
-80 340 -44 620 -79 622 -77 4 3 134 615 134 628 0 4 -53 28 -117 53 -406 157
-1110 425 -1123 428 -9 2 -16 -6 -18 -19 -4 -28 -15 -28 -71 1 l-43 23 38 23
c65 38 110 50 143 39 25 -9 35 -7 60 12 32 24 37 35 22 58 -7 11 -15 11 -45 0
-19 -7 -39 -10 -42 -6 -4 4 -8 34 -9 67 -1 33 -4 62 -7 65 -3 3 -23 -24 -44
-61 -22 -38 -49 -70 -62 -75 -31 -12 -72 -11 -72 1 0 17 -82 33 -112 22 -16
-6 -28 -6 -28 -1 0 5 -9 9 -20 9 -15 0 -20 7 -20 25 l0 25 -51 -26 c-28 -14
-54 -23 -57 -20 -3 4 13 14 36 23 42 16 55 33 26 33 -12 0 -15 6 -10 24 8 31
-16 40 -78 31 -51 -8 -64 4 -41 38 15 23 14 25 -4 30 -11 3 -36 1 -56 -3 -21
-5 -33 -4 -29 2 3 5 7 20 9 34 2 18 -2 24 -18 24 -17 0 -18 2 -6 16 9 12 -3 8
-38 -9 -28 -15 -53 -22 -55 -17 -2 5 -23 0 -48 -12 -25 -11 -58 -21 -74 -23
-27 -2 -28 -1 -10 12 41 31 162 98 268 149 195 94 456 168 676 193 122 14 377
12 500 -3z m0 -996 c305 -117 558 -215 562 -219 12 -11 -105 -541 -120 -541
-7 0 -11 4 -8 9 3 4 21 84 41 177 24 116 32 170 24 173 -8 2 -7 6 2 12 10 6
52 159 45 165 -12 11 -262 92 -267 87 -4 -5 -24 -88 -44 -187 -30 -146 -35
-180 -24 -187 11 -7 11 -9 -2 -9 -11 0 -20 -21 -32 -78 -25 -115 -30 -107 75
-122 51 -8 88 -15 82 -17 -6 -2 -202 21 -435 51 -233 30 -470 60 -526 67 -57
7 -103 16 -103 20 0 26 35 25 235 -6 116 -18 212 -31 214 -29 4 4 51 208 48
210 -1 1 -92 21 -202 44 -110 24 -204 47 -210 53 -6 6 -3 7 10 3 61 -17 390
-86 398 -83 6 2 20 49 32 104 l22 101 -211 61 c-116 33 -216 61 -222 61 -6 0
-16 -21 -22 -47 -11 -47 -11 -47 -8 27 2 41 16 130 32 198 22 98 31 122 44
119 8 -2 265 -100 570 -217z m940 -5 c-21 -26 -31 -16 -13 11 9 15 19 21 21
15 2 -6 -2 -18 -8 -26z m-633 -331 c-3 -3 -12 -4 -19 -1 -8 3 -5 6 6 6 11 1
17 -2 13 -5z m70 -20 c-3 -3 -12 -4 -19 -1 -8 3 -5 6 6 6 11 1 17 -2 13 -5z
m70 -20 c-3 -3 -12 -4 -19 -1 -8 3 -5 6 6 6 11 1 17 -2 13 -5z m-184 -151 c-7
-2 -19 -2 -25 0 -7 3 -2 5 12 5 14 0 19 -2 13 -5z m44 -9 c-3 -3 -12 -4 -19
-1 -8 3 -5 6 6 6 11 1 17 -2 13 -5z m50 -10 c-3 -3 -12 -4 -19 -1 -8 3 -5 6 6
6 11 1 17 -2 13 -5z m40 -10 c-3 -3 -12 -4 -19 -1 -8 3 -5 6 6 6 11 1 17 -2
13 -5z m50 -10 c-3 -3 -12 -4 -19 -1 -8 3 -5 6 6 6 11 1 17 -2 13 -5z m-44
-181 c-7 -2 -21 -2 -30 0 -10 3 -4 5 12 5 17 0 24 -2 18 -5z"/>
<path d="M515 5168 c-10 -28 -86 -380 -83 -383 8 -8 732 -214 736 -210 10 10
79 340 73 347 -5 6 -706 258 -717 258 -3 0 -7 -6 -9 -12z"/>
<path d="M1286 4719 c-20 -94 -36 -172 -34 -174 7 -5 570 -166 573 -163 5 6
67 309 63 312 -6 6 -546 196 -555 196 -5 0 -26 -77 -47 -171z"/>
<path d="M405 4683 c-9 -43 -29 -132 -45 -198 -15 -66 -26 -121 -25 -123 5 -5
749 -172 752 -168 8 8 76 347 70 352 -4 5 -722 214 -733 214 -1 0 -10 -35 -19
-77z"/>
<path d="M1937 4603 c-42 -188 -49 -234 -41 -242 11 -10 443 -135 449 -130 11
12 57 271 49 279 -7 7 -426 160 -439 160 -2 0 -10 -30 -18 -67z"/>
<path d="M1205 4349 c-20 -93 -35 -172 -33 -174 2 -2 133 -33 292 -68 191 -43
289 -60 291 -53 17 51 64 301 58 306 -9 8 -542 160 -559 160 -6 0 -28 -77 -49
-171z"/>
<path d="M1867 4273 c-42 -186 -50 -234 -41 -242 8 -7 426 -102 449 -101 13 0
69 270 58 280 -7 7 -429 130 -445 130 -3 0 -13 -30 -21 -67z"/>
<path d="M281 4134 c-23 -107 -41 -197 -38 -200 9 -9 752 -122 759 -115 12 12
80 343 71 350 -8 8 -709 161 -734 161 -10 0 -26 -53 -58 -196z"/>
<path d="M1157 4128 c-41 -174 -68 -321 -59 -327 21 -12 574 -93 581 -85 8 9
73 305 69 309 -4 3 -567 125 -578 125 -4 0 -10 -10 -13 -22z"/>
<path d="M1810 4007 c0 -2 -13 -65 -30 -140 -16 -76 -30 -145 -30 -155 0 -15
33 -22 233 -53 127 -20 233 -35 235 -34 6 5 61 279 57 283 -4 4 -441 101 -457
102 -5 0 -8 -1 -8 -3z"/>
<path d="M4105 4780 c-3 -5 -15 -10 -27 -10 -11 0 -22 -8 -25 -18 -4 -16 -11
-18 -46 -11 -23 4 -52 10 -64 14 -16 5 -23 2 -28 -14 -3 -11 -12 -18 -19 -15
-11 4 -96 -92 -96 -108 0 -3 11 -9 24 -12 14 -3 41 -26 61 -51 30 -36 36 -50
31 -71 -5 -18 -2 -32 10 -45 17 -18 16 -22 -6 -75 -21 -51 -21 -59 -9 -96 12
-39 58 -84 89 -88 30 -4 40 0 40 20 0 13 15 27 48 44 65 33 160 106 212 162
l44 47 -32 16 c-42 19 -40 31 4 31 l36 0 -27 36 c-26 34 -26 36 -6 29 32 -10
27 19 -13 62 -18 21 -43 57 -55 81 -24 47 -24 47 -51 30 -16 -10 -23 -10 -37
5 -16 16 -16 17 2 17 20 1 20 1 1 15 -23 17 -52 20 -61 5z"/>
<path d="M3457 4736 c-51 -31 -53 -34 -17 -31 33 2 65 26 59 43 -2 6 -20 1
-42 -12z"/>
<path d="M3770 4746 c-47 -8 -66 -16 -68 -28 -2 -9 2 -19 7 -23 21 -12 10 -35
-29 -61 -22 -15 -54 -30 -72 -33 -32 -7 -33 -7 -11 -19 19 -11 31 -9 72 9 28
11 54 18 60 15 5 -3 18 4 28 18 10 13 29 26 41 30 33 11 68 87 45 99 -5 2 -37
-1 -73 -7z"/>
<path d="M3258 4651 l-33 -15 33 -4 c29 -3 32 -5 17 -16 -15 -11 -15 -13 2
-28 34 -30 58 -30 84 -2 l24 26 -24 -7 c-22 -7 -23 -5 -19 23 4 27 1 31 -24
34 -15 3 -42 -2 -60 -11z"/>
<path d="M3430 4630 c-23 -23 -26 -40 -7 -40 20 1 47 26 47 44 0 22 -16 20
-40 -4z"/>
<path d="M3146 4592 c-8 -16 -13 -32 -10 -35 13 -12 -8 -45 -32 -51 -25 -7
-26 -8 -9 -26 28 -30 89 -26 153 10 28 17 52 34 52 38 0 11 -59 34 -74 29 -15
-6 -46 22 -46 41 0 24 -20 21 -34 -6z"/>
<path d="M3448 4554 c-5 -4 -8 -23 -8 -43 0 -25 3 -32 11 -24 6 6 9 25 7 43
-2 17 -6 28 -10 24z"/>
<path d="M3504 4520 c-30 -12 -37 -26 -25 -49 7 -12 18 -17 30 -14 23 6 81
-23 81 -40 0 -6 -18 -38 -41 -70 -28 -39 -47 -57 -62 -57 -12 0 -29 -5 -37
-10 -11 -7 -4 -10 27 -10 39 0 44 -3 61 -36 l19 -36 21 35 c11 20 32 43 47 53
25 16 27 16 56 -5 34 -25 42 -23 59 20 9 22 10 33 2 38 -6 3 -14 20 -18 36 -3
17 -12 37 -19 45 -6 8 -14 22 -17 31 -3 8 -25 21 -49 28 -24 7 -49 20 -55 29
-11 15 -14 15 -34 -3 l-23 -20 7 23 c8 24 3 26 -30 12z"/>
<path d="M4403 4360 c-29 -12 -29 -23 1 -40 41 -21 126 6 126 41 0 11 -98 11
-127 -1z"/>
<path d="M4682 4045 c-27 -34 -27 -34 2 -86 l25 -43 6 27 c4 15 13 31 20 35
10 5 8 17 -9 51 l-23 43 -21 -27z"/>
<path d="M2240 3058 c0 -11 71 -56 101 -63 15 -4 32 -17 39 -31 16 -29 96 -62
112 -46 8 8 1 22 -22 52 -30 38 -37 42 -67 37 -18 -3 -33 -2 -33 2 0 24 -32
45 -79 51 -28 3 -51 3 -51 -2z"/>
<path d="M2576 2897 c-14 -11 -17 -21 -11 -46 5 -22 11 -31 21 -27 8 3 30 -9
49 -26 l36 -31 24 23 c24 22 24 24 7 52 -17 29 -72 68 -96 68 -7 0 -20 -6 -30
-13z"/>
<path d="M3370 4043 c-12 -54 -24 -107 -26 -118 -5 -18 14 -26 212 -83 140
-40 220 -59 224 -52 14 22 43 191 34 199 -9 8 -402 151 -415 151 -4 0 -16 -44
-29 -97z"/>
<path d="M3866 3959 c-4 -13 -37 -162 -40 -183 0 -5 22 -17 49 -27 28 -11 39
-17 25 -14 -14 3 -37 8 -51 11 -31 7 -30 7 -54 -104 -20 -95 -19 -100 8 -105
19 -4 19 -4 -5 -6 -24 -1 -28 -6 -42 -68 -8 -38 -18 -84 -21 -104 l-7 -35 173
-27 c95 -14 175 -24 177 -22 2 2 13 43 23 91 14 63 17 89 9 94 -8 5 -7 9 3 13
8 3 21 39 31 93 15 71 15 88 4 95 -10 7 -10 9 3 9 11 0 20 21 32 78 9 42 17
85 17 93 0 12 -41 31 -152 69 -84 30 -159 55 -165 58 -7 2 -15 -2 -17 -9z
m109 -239 c13 -5 14 -9 5 -9 -8 0 -24 4 -35 9 -13 5 -14 9 -5 9 8 0 24 -4 35
-9z m70 -20 c13 -5 14 -9 5 -9 -8 0 -24 4 -35 9 -13 5 -14 9 -5 9 8 0 24 -4
35 -9z m70 -20 c13 -5 14 -9 5 -9 -8 0 -24 4 -35 9 -13 5 -14 9 -5 9 8 0 24
-4 35 -9z m-225 -160 c20 -6 21 -8 5 -8 -11 0 -31 4 -45 8 -20 6 -21 8 -5 8
11 0 31 -4 45 -8z m63 -17 c-7 -2 -19 -2 -25 0 -7 3 -2 5 12 5 14 0 19 -2 13
-5z m44 -9 c-3 -3 -12 -4 -19 -1 -8 3 -5 6 6 6 11 1 17 -2 13 -5z m46 -11 c-7
-2 -19 -2 -25 0 -7 3 -2 5 12 5 14 0 19 -2 13 -5z m44 -9 c-3 -3 -12 -4 -19
-1 -8 3 -5 6 6 6 11 1 17 -2 13 -5z"/>
</g>
</svg>
